<?xml version="1.0" encoding="UTF-8"?>
<!DOCTYPE svg PUBLIC "-//W3C//DTD SVG 1.1//EN" "http://www.w3.org/Graphics/SVG/1.1/DTD/svg11.dtd">
<!-- Creator: CorelDRAW 2017 -->
<svg xmlns="http://www.w3.org/2000/svg" xml:space="preserve" width="2480px" height="3508px" version="1.1" style="shape-rendering:geometricPrecision; text-rendering:geometricPrecision; image-rendering:optimizeQuality; fill-rule:evenodd; clip-rule:evenodd"
viewBox="0 0 2480 3507.43"
 xmlns:xlink="http://www.w3.org/1999/xlink">
 <defs>
  <style type="text/css">
   <![CDATA[
    .fil0 {fill:#FDFDFD}
   ]]>
  </style>
 </defs>
 <g id="Layer_x0020_1">
  <metadata id="CorelCorpID_0Corel-Layer"/>
  <path class="fil0" d="M1717.41 1712.17c0,-47.73 8.23,-62.77 58.67,-56.65l0.36 19.63c-21.05,13.21 -28.23,-3.59 -28.56,33.33 0.83,0.63 2.04,1.31 2.71,1.56l9.93 3.17c3.36,0.61 9.89,0.3 13.91,0.36l-2.65 24.08c-24.85,16.45 -23.21,-26.5 -24.7,73.97l-29.35 0.16c-0.42,-81.25 4.65,-69.65 -25.31,-69.72l0.99 -28.26 24 -1.63zm-154.81 46.31c14.7,84.92 95.68,160.47 200.12,143.44 86.27,-14.06 162.14,-95.51 145.14,-200.23 -13.99,-86.15 -95.43,-162.17 -200.36,-145.12 -86.29,14.02 -163.15,96.41 -144.9,201.91z"/>
  <path class="fil0" d="M2130.92 1707.72c8.16,-16.89 3.49,-32.06 25.79,-37.28 31.23,-7.31 16.22,12.02 49.86,3.94l-3.34 11.32c0.01,0.2 0.46,1.03 0.48,1.2 0.03,0.16 0.53,0.91 0.55,1.05 1.51,10.89 0.06,-0.05 -4.56,13.56 -10.42,30.65 -15.38,120.05 -137.24,86.11 1.01,-0.63 2.42,-1.22 3.21,-1.56l6.42 -2.82c1.06,-0.41 2.18,-0.78 3.28,-1.17l26.61 -10.96c-16.97,-11.6 -21.73,-3.46 -22.57,-22.17 -0.46,-10.31 6.3,0.77 -3.7,-10.1 -21.91,-23.8 -6.81,-23.49 -6.76,-24.13 1.21,-16.78 -10.82,-9.84 -2.8,-37.64 23.33,11.24 22.87,27.55 64.77,30.65zm-168.37 50.76c14.69,84.92 95.68,160.47 200.12,143.44 86.27,-14.06 162.14,-95.51 145.14,-200.23 -13.99,-86.15 -95.43,-162.17 -200.36,-145.12 -86.29,14.02 -163.15,96.41 -144.9,201.91z"/>
 </g>
</svg>
